<?xml version="1.0" standalone="no"?>
<!DOCTYPE svg PUBLIC "-//W3C//DTD SVG 20010904//EN"
 "http://www.w3.org/TR/2001/REC-SVG-20010904/DTD/svg10.dtd">
<svg version="1.0" xmlns="http://www.w3.org/2000/svg"
 width="700.000000pt" height="700.000000pt" viewBox="0 0 700.000000 700.000000"
 preserveAspectRatio="xMidYMid meet">
<metadata>
Created by potrace 1.14, written by Peter Selinger 2001-2017
</metadata>
<g transform="translate(0.000000,700.000000) scale(0.100000,-0.100000)"
fill="#000000" stroke="none">
<path d="M1033 6682 c-30 -3 -31 -5 -31 -46 l0 -43 116 -2 c299 -5 420 -37
506 -131 50 -56 75 -114 91 -214 20 -124 19 -5385 -1 -5501 -43 -246 -175
-327 -546 -334 -84 -1 -155 -4 -159 -7 -4 -2 -6 -22 -6 -44 1 -36 3 -40 26
-40 143 -3 1304 1 1361 4 127 8 261 19 365 31 22 2 63 7 90 10 28 3 75 10 105
15 30 5 75 12 100 15 25 3 52 8 60 10 8 2 33 6 55 10 22 3 47 7 55 10 8 2 26
6 40 9 51 9 187 38 245 52 33 8 67 16 75 18 154 38 457 134 585 187 11 4 38
15 60 24 191 76 454 212 625 323 503 328 845 757 1016 1271 32 97 65 221 78
296 3 17 8 41 11 55 5 24 7 35 20 130 27 198 27 538 -1 725 -11 77 -15 101
-30 175 -139 681 -568 1148 -1175 1278 -131 29 -192 35 -363 36 -211 3 -381
-27 -567 -99 -620 -239 -1103 -905 -1401 -1930 -50 -174 -127 -490 -143 -590
-3 -16 -10 -52 -15 -80 -10 -50 -12 -65 -25 -140 -3 -22 -10 -60 -15 -85 -5
-25 -12 -67 -15 -95 -3 -27 -10 -78 -16 -112 -5 -34 -12 -88 -15 -120 -4 -32
-8 -60 -10 -62 -2 -2 -3 1118 -3 2489 0 1371 -2 2495 -5 2497 -5 5 -1092 10
-1143 5z m3532 -2087 c134 -28 185 -45 279 -92 222 -110 412 -311 530 -558 87
-180 138 -374 162 -605 12 -112 5 -421 -11 -530 -2 -14 -7 -49 -10 -79 -4 -30
-9 -63 -11 -75 -2 -12 -7 -37 -10 -56 -3 -19 -17 -80 -30 -135 -14 -55 -27
-108 -29 -117 -9 -41 -71 -211 -107 -293 -318 -726 -1006 -1242 -1988 -1490
-199 -50 -179 -46 -405 -84 -169 -29 -234 -38 -330 -47 -27 -2 -70 -6 -95 -9
-25 -2 -109 -7 -188 -11 l-142 -6 5 244 c3 133 8 266 9 293 2 28 7 104 11 170
3 66 8 131 10 145 2 14 7 59 10 100 10 115 14 151 21 205 4 28 8 61 9 75 8 74
18 146 20 150 2 3 6 34 10 70 4 36 8 67 10 70 2 3 6 26 10 50 12 84 75 392
106 514 153 609 368 1087 650 1442 92 116 272 289 380 367 107 76 316 183 434
222 103 34 250 64 345 72 41 3 76 7 78 8 6 5 237 -4 267 -10z"/>
</g>
</svg>
