<svg width="520" height="154" viewBox="0 0 520 154" fill="none" xmlns="http://www.w3.org/2000/svg">
<path d="M439.478 153.407C417.478 153.407 402.811 140.815 402.811 122.667C402.811 80.9629 460.144 89.037 491.552 56.2963V51.1111C491.552 46.1481 490.663 45.3333 485.107 45.3333H459.774C448.366 45.3333 444.292 52.8148 437.626 65.037L435.774 64L446.441 44.5185L451.107 35.9259L451.996 36.2963C448.959 41.1852 448.07 43.1852 459.626 43.1852H502.218V45.2592V56.9629V136.222C502.218 147.63 508.144 147.926 519.255 147.926V150H491.478V147.926C491.552 147.926 491.552 147.63 491.552 136.222V84.3703C485.774 128.074 466.811 153.407 439.478 153.407ZM413.552 120C413.552 137.704 427.626 144.074 439.107 144.074C475.922 144.074 491.552 101.185 491.552 58.4444C461.7 91.3333 413.552 78.1481 413.552 120Z" fill="white"/>
<path d="M352.603 14.2222C352.603 2.81483 346.678 2.51854 335.566 2.51854V0.444458H363.27V2.51854V14.2222V136.222C363.27 147.63 369.196 147.926 380.307 147.926V150H352.603V147.926V136.222V14.2222Z" fill="white"/>
<path d="M287.877 14.2222C287.877 2.81483 281.951 2.51854 270.84 2.51854V0.444458H298.544V2.51854V14.2222V136.222C298.544 147.63 304.469 147.926 315.581 147.926V150H287.877V147.926V136.222V14.2222Z" fill="white"/>
<path d="M149.452 96.5926C149.452 65.1852 175.081 39.7778 206.34 39.7778C216.711 39.7778 236.637 42.6667 250.785 61.8518L165.748 121.63C175.896 138.444 193.377 149.481 212.266 149.481C224.785 149.481 238.859 142.37 247.229 132.593L249.081 134C238.563 145.926 223.155 153.481 206.34 153.481C175.081 153.481 149.452 128 149.452 96.5926ZM157.303 96.5926C158.266 105.111 160.933 113.037 164.859 120L225.6 77.5555C235.822 70.1481 242.785 64 233.007 54.7407C223.377 45.5555 206.563 42.1481 200.044 42.1481C173.081 42.1481 153.896 66.5926 157.303 96.5926Z" fill="white"/>
<path d="M17.7988 14.2222C17.7988 2.81483 11.8728 2.51854 0.761719 2.51854V0.444458H28.4654V2.51854V14.2222V118.741C33.5025 74.4445 50.0951 39.7778 80.5395 39.7778C103.651 39.7778 118.169 57.0371 118.169 83.3333C118.169 143.556 45.9469 150 28.4654 150H0.761719V147.926C11.8728 147.926 17.7988 147.63 17.7988 136.222V14.2222ZM28.4654 147.852C43.5765 147.852 107.502 142.519 107.502 83.3333C107.502 62.8148 95.5025 49.1852 80.7617 49.1852C41.5025 49.1852 28.4654 100.37 28.4654 147.852Z" fill="white"/>
</svg>
